REM DIRINDEX 1\2,1\3,1\4,1\5
REM DIRNAME "folder01","folder02","folder03","folder04","folder05"
TITLE ""
FILE "1Q_t_1801-1809.mp3" MP3
  TRACK 01 AUDIO
    TITLE "0:"
    INDEX 01 00:00:00
  TRACK 02 AUDIO
    TITLE "2:cjc172_6400"
    INDEX 01 00:00:10
  TRACK 03 AUDIO
    TITLE "0:"
    INDEX 01 00:01:67
  TRACK 04 AUDIO
    TITLE "2:cjc172_6401"
    INDEX 01 00:02:43
  TRACK 05 AUDIO
    TITLE "0:"
    INDEX 01 00:03:46
  TRACK 06 AUDIO
    TITLE "3:cjc172_6402"
    INDEX 01 00:04:18
  TRACK 07 AUDIO
    TITLE "0:"
    INDEX 01 00:05:35
  TRACK 08 AUDIO
    TITLE "4:cjc172_6403"
    INDEX 01 00:05:45
  TRACK 09 AUDIO
    TITLE "0:"
    INDEX 01 00:08:29
  TRACK 10 AUDIO
    TITLE "5:cjc172_6404"
    INDEX 01 00:08:37
  TRACK 11 AUDIO
    TITLE "0:"
    INDEX 01 00:14:32
  TRACK 12 AUDIO
    TITLE "3:cjc172_6405"
    INDEX 01 00:15:04
  TRACK 13 AUDIO
    TITLE "0:"
    INDEX 01 00:16:21
  TRACK 14 AUDIO
    TITLE "4:cjc172_6406"
    INDEX 01 00:16:31
  TRACK 15 AUDIO
    TITLE "0:"
    INDEX 01 00:18:36
  TRACK 16 AUDIO
    TITLE "5:cjc172_6407"
    INDEX 01 00:18:45
  TRACK 17 AUDIO
    TITLE "0:"
    INDEX 01 00:22:75
  TRACK 18 AUDIO
    TITLE "3:cjc172_6408"
    INDEX 01 00:23:47
  TRACK 19 AUDIO
    TITLE "0:"
    INDEX 01 00:24:40
  TRACK 20 AUDIO
    TITLE "4:cjc172_6409"
    INDEX 01 00:24:52
  TRACK 21 AUDIO
    TITLE "0:"
    INDEX 01 00:28:40
  TRACK 22 AUDIO
    TITLE "5:cjc172_6410"
    INDEX 01 00:28:48
  TRACK 23 AUDIO
    TITLE "0:"
    INDEX 01 00:34:37
  TRACK 24 AUDIO
    TITLE "3:cjc172_6411"
    INDEX 01 00:35:09
  TRACK 25 AUDIO
    TITLE "0:"
    INDEX 01 00:36:37
  TRACK 26 AUDIO
    TITLE "4:cjc172_6412"
    INDEX 01 00:36:47
  TRACK 27 AUDIO
    TITLE "0:"
    INDEX 01 00:40:51
  TRACK 28 AUDIO
    TITLE "5:cjc172_6413"
    INDEX 01 00:40:59
  TRACK 29 AUDIO
    TITLE "0:"
    INDEX 01 00:45:68
  TRACK 30 AUDIO
    TITLE "3:cjc172_6414"
    INDEX 01 00:46:40
  TRACK 31 AUDIO
    TITLE "0:"
    INDEX 01 00:47:45
  TRACK 32 AUDIO
    TITLE "4:cjc172_6415"
    INDEX 01 00:47:55
  TRACK 33 AUDIO
    TITLE "0:"
    INDEX 01 00:51:19
  TRACK 34 AUDIO
    TITLE "5:cjc172_6416"
    INDEX 01 00:51:27
  TRACK 35 AUDIO
    TITLE "0:"
    INDEX 01 00:55:64
  TRACK 36 AUDIO
    TITLE "3:cjc172_6417"
    INDEX 01 00:56:38
  TRACK 37 AUDIO
    TITLE "0:"
    INDEX 01 00:57:57
  TRACK 38 AUDIO
    TITLE "4:cjc172_6418"
    INDEX 01 00:57:69
  TRACK 39 AUDIO
    TITLE "0:"
    INDEX 01 01:00:42
  TRACK 40 AUDIO
    TITLE "5:cjc172_6419"
    INDEX 01 01:00:50
  TRACK 41 AUDIO
    TITLE "0:"
    INDEX 01 01:06:25
  TRACK 42 AUDIO
    TITLE "3:cjc172_6420"
    INDEX 01 01:06:72
  TRACK 43 AUDIO
    TITLE "0:"
    INDEX 01 01:08:06
  TRACK 44 AUDIO
    TITLE "4:cjc172_6421"
    INDEX 01 01:08:16
  TRACK 45 AUDIO
    TITLE "0:"
    INDEX 01 01:10:07
  TRACK 46 AUDIO
    TITLE "5:cjc172_6422"
    INDEX 01 01:10:15
  TRACK 47 AUDIO
    TITLE "0:"
    INDEX 01 01:15:55
  TRACK 48 AUDIO
    TITLE "3:cjc172_6423"
    INDEX 01 01:16:27
  TRACK 49 AUDIO
    TITLE "0:"
    INDEX 01 01:17:44
  TRACK 50 AUDIO
    TITLE "4:cjc172_6424"
    INDEX 01 01:17:54
  TRACK 51 AUDIO
    TITLE "0:"
    INDEX 01 01:20:09
  TRACK 52 AUDIO
    TITLE "5:cjc172_6425"
    INDEX 01 01:20:17
  TRACK 53 AUDIO
    TITLE "0:"
    INDEX 01 01:25:30
  TRACK 54 AUDIO
    TITLE "3:cjc172_6426"
    INDEX 01 01:26:02
  TRACK 55 AUDIO
    TITLE "0:"
    INDEX 01 01:27:19
  TRACK 56 AUDIO
    TITLE "4:cjc172_6427"
    INDEX 01 01:27:29
  TRACK 57 AUDIO
    TITLE "0:"
    INDEX 01 01:30:43
  TRACK 58 AUDIO
    TITLE "5:cjc172_6428"
    INDEX 01 01:30:51
  TRACK 59 AUDIO
    TITLE "0:"
    INDEX 01 01:36:59
